<?xml version="1.0" encoding="utf-8"?>
<!-- Generator: Adobe Illustrator 18.1.1, SVG Export Plug-In . SVG Version: 6.00 Build 0)  -->
<svg version="1.1" id="Layer_1" xmlns="http://www.w3.org/2000/svg" xmlns:xlink="http://www.w3.org/1999/xlink" x="0px" y="0px"
	 viewBox="0 0 31.1 31.1" enable-background="new 0 0 31.1 31.1" xml:space="preserve">
<circle fill="#1a1d1f" cx="15.5" cy="15.5" r="15.5"/>
<path id="Facebook_2_" fill="#1a1d1f" d="M12.9,11.1c0,0.5,0,2.6,0,2.6h-1.9v3.1h1.9v8.6h3.9v-8.6h2.6c0,0,0.2-1.5,0.4-3.1
	c-0.3,0-2.9,0-2.9,0s0-1.8,0-2.1c0-0.3,0.4-0.8,0.8-0.8c0.4,0,1.3,0,2.1,0c0-0.4,0-1.9,0-3.3c-1.1,0-2.3,0-2.9,0
	C12.8,7.5,12.9,10.6,12.9,11.1z"/>
<path id="Facebook_1_" fill="#FFFFFF" d="M12.5,10c0,0.5,0,2.8,0,2.8h-2v3.4h2v9.3h4.2v-9.3h2.8c0,0,0.3-1.6,0.4-3.4
	c-0.4,0-3.2,0-3.2,0s0-2,0-2.3c0-0.3,0.5-0.8,0.9-0.8c0.4,0,1.4,0,2.3,0c0-0.5,0-2.1,0-3.5c-1.2,0-2.5,0-3.1,0
	C12.4,6.1,12.5,9.5,12.5,10z"/>
<g>
</g>
<g>
</g>
<g>
</g>
<g>
</g>
<g>
</g>
<g>
</g>
</svg>
