<?xml version="1.0" encoding="utf-8"?>
<!-- Generator: Adobe Illustrator 18.1.1, SVG Export Plug-In . SVG Version: 6.00 Build 0)  -->
<svg version="1.1" id="Layer_1" xmlns="http://www.w3.org/2000/svg" xmlns:xlink="http://www.w3.org/1999/xlink" x="0px" y="0px"
	 viewBox="0 0 31.1 31.1" enable-background="new 0 0 31.1 31.1" xml:space="preserve">
<circle fill="#1a1d1f" cx="15.5" cy="15.5" r="15.5"/>
<path fill="#1a1d1f" d="M12.2,22.5h-3v-9.7h3V22.5z M10.7,11.7L10.7,11.7c-1.1,0-1.8-0.7-1.8-1.7c0-1,0.7-1.7,1.8-1.7
	c1.1,0,1.8,0.7,1.8,1.7C12.5,10.9,11.8,11.7,10.7,11.7z M24.3,22.5h-3.4v-5c0-1.3-0.5-2.2-1.7-2.2c-0.9,0-1.4,0.6-1.6,1.2
	c-0.1,0.2-0.1,0.5-0.1,0.8v5.2h-3.4c0,0,0-8.9,0-9.7h3.4v1.5c0.2-0.7,1.3-1.6,3-1.6c2.1,0,3.8,1.4,3.8,4.4V22.5z"/>
<path fill="#FFFFFF" d="M11.5,21.7h-3v-9.7h3V21.7z M10,10.8L10,10.8c-1.1,0-1.8-0.7-1.8-1.7c0-1,0.7-1.7,1.8-1.7
	c1.1,0,1.8,0.7,1.8,1.7C11.8,10.1,11.1,10.8,10,10.8z M23.6,21.7h-3.4v-5c0-1.3-0.5-2.2-1.7-2.2c-0.9,0-1.4,0.6-1.6,1.2
	c-0.1,0.2-0.1,0.5-0.1,0.8v5.2h-3.4c0,0,0-8.9,0-9.7h3.4v1.5c0.2-0.7,1.3-1.6,3-1.6c2.1,0,3.8,1.4,3.8,4.4V21.7z"/>
<g>
</g>
<g>
</g>
<g>
</g>
<g>
</g>
<g>
</g>
<g>
</g>
</svg>
